<svg width="400" height="400" viewBox="0 0 400 400" fill="none" xmlns="http://www.w3.org/2000/svg">
<rect width="400" height="400" fill="#FC5835"/>
<path d="M151.556 261.667C151.963 260.333 152.593 259.278 153.444 258.5C154.333 257.722 155.296 257.222 156.333 257C157.37 256.778 158.407 256.796 159.444 257.056C160.481 257.278 161.37 257.722 162.111 258.389C162.852 259.056 163.37 259.926 163.667 261C164 262.037 163.944 263.241 163.5 264.611C161.944 269.463 160.148 273.593 158.111 277C156.074 280.37 153.852 283.13 151.444 285.278C149.074 287.389 146.556 288.926 143.889 289.889C141.222 290.852 138.519 291.333 135.778 291.333C133.333 291.333 131.037 290.981 128.889 290.278C126.778 289.574 124.926 288.556 123.333 287.222C121.741 285.889 120.481 284.259 119.556 282.333C118.63 280.37 118.167 278.148 118.167 275.667C118.167 274.519 118.296 273.278 118.556 271.944C118.815 270.611 119.167 269.296 119.611 268L132.833 230.611C133.019 229.981 133.167 229.389 133.278 228.833C133.426 228.241 133.5 227.704 133.5 227.222C133.5 225.778 133.056 224.611 132.167 223.722C131.315 222.796 130.185 222.333 128.778 222.333C127.667 222.333 126.537 222.593 125.389 223.111C124.241 223.63 123.13 224.37 122.056 225.333C121.019 226.296 120.037 227.481 119.111 228.889C118.222 230.296 117.463 231.907 116.833 233.722L98.8889 284.833C98.2593 286.574 97.3519 287.944 96.1667 288.944C94.9815 289.981 93.6852 290.667 92.2778 291C90.9074 291.37 89.537 291.389 88.1667 291.056C86.7963 290.759 85.6481 290.167 84.7222 289.278C83.7963 288.389 83.1852 287.241 82.8889 285.833C82.5926 284.389 82.8148 282.704 83.5556 280.778L100.333 234C101.185 231.815 101.685 229.981 101.833 228.5C102.019 226.981 101.963 225.759 101.667 224.833C101.37 223.907 100.889 223.241 100.222 222.833C99.5926 222.426 98.8889 222.222 98.1111 222.222C97 222.222 95.8704 222.481 94.7222 223C93.5741 223.481 92.463 224.167 91.3889 225.056C90.3519 225.944 89.3519 227.019 88.3889 228.278C87.463 229.537 86.6481 230.907 85.9444 232.389L67.3889 285C66.7963 286.704 65.9074 288.037 64.7222 289C63.5741 290 62.3148 290.667 60.9444 291C59.6111 291.37 58.2778 291.426 56.9444 291.167C55.6111 290.907 54.463 290.37 53.5 289.556C52.537 288.741 51.8704 287.685 51.5 286.389C51.0926 285.056 51.1481 283.5 51.6667 281.722L76.6111 210.889C77.1296 209.407 77.8519 208.259 78.7778 207.444C79.7037 206.63 80.7037 206.074 81.7778 205.778C82.8519 205.481 83.963 205.426 85.1111 205.611C86.2593 205.759 87.3148 206.056 88.2778 206.5C89.2778 206.944 90.1296 207.5 90.8333 208.167C91.537 208.833 92.0185 209.537 92.2778 210.278C92.3889 210.167 92.7407 209.852 93.3333 209.333C93.963 208.778 94.7963 208.222 95.8333 207.667C96.9074 207.111 98.1667 206.63 99.6111 206.222C101.056 205.815 102.648 205.667 104.389 205.778C105.907 205.889 107.241 206.13 108.389 206.5C109.537 206.833 110.574 207.315 111.5 207.944C112.426 208.537 113.259 209.278 114 210.167C114.741 211.019 115.481 212 116.222 213.111C117.407 211.889 118.722 210.833 120.167 209.944C121.611 209.019 123.111 208.259 124.667 207.667C126.259 207.037 127.852 206.574 129.444 206.278C131.037 205.944 132.593 205.778 134.111 205.778C136.667 205.778 138.981 206.204 141.056 207.056C143.167 207.87 144.963 209.019 146.444 210.5C147.963 211.944 149.13 213.667 149.944 215.667C150.796 217.667 151.222 219.852 151.222 222.222C151.222 224.593 150.778 227.019 149.889 229.5V229.444L134.611 272.056C134.426 272.685 134.259 273.278 134.111 273.833C134 274.389 133.944 274.87 133.944 275.278C133.944 276.315 134.222 277.13 134.778 277.722C135.37 278.315 136.185 278.611 137.222 278.611C138.37 278.611 139.574 278.278 140.833 277.611C142.093 276.944 143.333 275.926 144.556 274.556C145.778 273.148 146.981 271.389 148.167 269.278C149.352 267.13 150.481 264.593 151.556 261.667Z" fill="white"/>
<path d="M326.556 261.667C326.963 260.333 327.593 259.278 328.444 258.5C329.333 257.722 330.296 257.222 331.333 257C332.37 256.778 333.407 256.796 334.444 257.056C335.481 257.278 336.37 257.722 337.111 258.389C337.852 259.056 338.37 259.926 338.667 261C339 262.037 338.944 263.241 338.5 264.611C336.944 269.463 335.148 273.593 333.111 277C331.074 280.37 328.852 283.13 326.444 285.278C324.074 287.389 321.556 288.926 318.889 289.889C316.222 290.852 313.519 291.333 310.778 291.333C308.333 291.333 306.037 290.981 303.889 290.278C301.778 289.574 299.926 288.556 298.333 287.222C296.741 285.889 295.481 284.259 294.556 282.333C293.63 280.37 293.167 278.148 293.167 275.667C293.167 274.519 293.296 273.278 293.556 271.944C293.815 270.611 294.167 269.296 294.611 268L307.833 230.611C308.019 229.981 308.167 229.389 308.278 228.833C308.426 228.241 308.5 227.704 308.5 227.222C308.5 225.778 308.056 224.611 307.167 223.722C306.315 222.796 305.185 222.333 303.778 222.333C302.667 222.333 301.537 222.593 300.389 223.111C299.241 223.63 298.13 224.37 297.056 225.333C296.019 226.296 295.037 227.481 294.111 228.889C293.222 230.296 292.463 231.907 291.833 233.722L273.889 284.833C273.259 286.574 272.352 287.944 271.167 288.944C269.981 289.981 268.685 290.667 267.278 291C265.907 291.37 264.537 291.389 263.167 291.056C261.796 290.759 260.648 290.167 259.722 289.278C258.796 288.389 258.185 287.241 257.889 285.833C257.593 284.389 257.815 282.704 258.556 280.778L275.333 234C276.185 231.815 276.685 229.981 276.833 228.5C277.019 226.981 276.963 225.759 276.667 224.833C276.37 223.907 275.889 223.241 275.222 222.833C274.593 222.426 273.889 222.222 273.111 222.222C272 222.222 270.87 222.481 269.722 223C268.574 223.481 267.463 224.167 266.389 225.056C265.352 225.944 264.352 227.019 263.389 228.278C262.463 229.537 261.648 230.907 260.944 232.389L242.389 285C241.796 286.704 240.907 288.037 239.722 289C238.574 290 237.315 290.667 235.944 291C234.611 291.37 233.278 291.426 231.944 291.167C230.611 290.907 229.463 290.37 228.5 289.556C227.537 288.741 226.87 287.685 226.5 286.389C226.093 285.056 226.148 283.5 226.667 281.722L251.611 210.889C252.13 209.407 252.852 208.259 253.778 207.444C254.704 206.63 255.704 206.074 256.778 205.778C257.852 205.481 258.963 205.426 260.111 205.611C261.259 205.759 262.315 206.056 263.278 206.5C264.278 206.944 265.13 207.5 265.833 208.167C266.537 208.833 267.019 209.537 267.278 210.278C267.389 210.167 267.741 209.852 268.333 209.333C268.963 208.778 269.796 208.222 270.833 207.667C271.907 207.111 273.167 206.63 274.611 206.222C276.056 205.815 277.648 205.667 279.389 205.778C280.907 205.889 282.241 206.13 283.389 206.5C284.537 206.833 285.574 207.315 286.5 207.944C287.426 208.537 288.259 209.278 289 210.167C289.741 211.019 290.481 212 291.222 213.111C292.407 211.889 293.722 210.833 295.167 209.944C296.611 209.019 298.111 208.259 299.667 207.667C301.259 207.037 302.852 206.574 304.444 206.278C306.037 205.944 307.593 205.778 309.111 205.778C311.667 205.778 313.981 206.204 316.056 207.056C318.167 207.87 319.963 209.019 321.444 210.5C322.963 211.944 324.13 213.667 324.944 215.667C325.796 217.667 326.222 219.852 326.222 222.222C326.222 224.593 325.778 227.019 324.889 229.5V229.444L309.611 272.056C309.426 272.685 309.259 273.278 309.111 273.833C309 274.389 308.944 274.87 308.944 275.278C308.944 276.315 309.222 277.13 309.778 277.722C310.37 278.315 311.185 278.611 312.222 278.611C313.37 278.611 314.574 278.278 315.833 277.611C317.093 276.944 318.333 275.926 319.556 274.556C320.778 273.148 321.981 271.389 323.167 269.278C324.352 267.13 325.481 264.593 326.556 261.667Z" fill="white"/>
<path d="M222.778 237.278C223.222 235.833 223.926 234.685 224.889 233.833C225.852 232.944 226.87 232.352 227.944 232.056C229.056 231.722 230.148 231.667 231.222 231.889C232.296 232.111 233.204 232.574 233.944 233.278C234.685 233.981 235.148 234.926 235.333 236.111C235.556 237.296 235.352 238.685 234.722 240.278C234.537 240.833 234.352 241.315 234.167 241.722C234.019 242.13 233.852 242.519 233.667 242.889C233.519 243.259 233.352 243.63 233.167 244C232.981 244.37 232.778 244.778 232.556 245.222C230.815 248.815 228.944 251.815 226.944 254.222C224.944 256.63 222.87 258.574 220.722 260.056C218.611 261.5 216.463 262.537 214.278 263.167C212.093 263.796 209.963 264.111 207.889 264.111C207.111 264.111 206.093 264.037 204.833 263.889C203.611 263.741 202.333 263.444 201 263C199.667 262.593 198.389 262 197.167 261.222C195.944 260.444 194.963 259.407 194.222 258.111C192.37 259.741 190.333 261 188.111 261.889C185.889 262.778 183.648 263.222 181.389 263.222C179.167 263.222 177.111 262.815 175.222 262C173.37 261.222 171.741 260.148 170.333 258.778C168.963 257.407 167.889 255.815 167.111 254C166.333 252.148 165.944 250.185 165.944 248.111C165.944 246.37 166.259 244.556 166.889 242.667L176.278 216.222C177.019 214.296 177.981 212.63 179.167 211.222C180.352 209.815 181.667 208.648 183.111 207.722C184.593 206.759 186.148 206.056 187.778 205.611C189.444 205.13 191.111 204.889 192.778 204.889C195.556 204.889 197.926 205.241 199.889 205.944C201.852 206.648 203.333 207.333 204.333 208C205.111 207 206.056 206.241 207.167 205.722C208.315 205.204 209.481 204.926 210.667 204.889C211.889 204.815 213.056 204.981 214.167 205.389C215.278 205.759 216.204 206.37 216.944 207.222C217.685 208.037 218.167 209.093 218.389 210.389C218.648 211.648 218.5 213.111 217.944 214.778L206.722 246.833C206.537 247.352 206.389 247.87 206.278 248.389C206.204 248.87 206.167 249.296 206.167 249.667C206.167 251.333 207.074 252.167 208.889 252.167C210 252.167 211.148 251.889 212.333 251.333C213.519 250.778 214.704 249.907 215.889 248.722C217.074 247.5 218.241 245.944 219.389 244.056C220.574 242.167 221.704 239.907 222.778 237.278ZM184.667 248.667C185.148 248.778 185.741 248.778 186.444 248.667C187.148 248.556 187.889 248.241 188.667 247.722C189.481 247.167 190.315 246.352 191.167 245.278C192.019 244.167 192.815 242.685 193.556 240.833L197.222 230.5C198.037 228.056 198.426 226.13 198.389 224.722C198.352 223.278 198.13 222.185 197.722 221.444C197.315 220.667 196.87 220.167 196.389 219.944C195.907 219.722 195.63 219.593 195.556 219.556C195.481 219.519 195.185 219.463 194.667 219.389C194.185 219.278 193.574 219.37 192.833 219.667C192.13 219.963 191.352 220.593 190.5 221.556C189.648 222.519 188.833 224.056 188.056 226.167L182.889 241.667C182.704 242.185 182.537 242.815 182.389 243.556C182.278 244.259 182.241 244.963 182.278 245.667C182.352 246.333 182.556 246.963 182.889 247.556C183.259 248.111 183.852 248.481 184.667 248.667Z" fill="white"/>
<ellipse cx="192.5" cy="288" rx="24.5" ry="5" fill="#C94C31"/>
<path fill-rule="evenodd" clip-rule="evenodd" d="M219.677 201.053C219.68 201.059 219.681 201.061 219.681 201.061C219.78 200.818 219.876 200.574 219.969 200.33L220.4 199.264C220.516 198.976 220.603 198.685 220.662 198.391C223.682 189.282 223.272 180.492 219.92 175.392L227.922 155.585C228.177 155.246 228.398 154.873 228.579 154.47L244.333 119.337C246.022 115.569 244.245 111.153 240.417 109.606C236.588 108.06 232.241 110.003 230.84 113.888L217.779 150.109C217.606 150.589 217.5 151.078 217.456 151.564L209.526 171.193C203.219 172.612 196.41 179.303 192.3 188.787C192.245 188.896 192.195 189.009 192.148 189.124L191.866 189.823L186.173 203.913C185.552 205.449 186.295 207.198 187.831 207.818C189.367 208.439 191.115 207.697 191.736 206.161L198.532 189.341C200.595 189.584 202.705 190.302 204.152 191.981L197.436 208.605C196.815 210.141 197.557 211.89 199.093 212.511C200.63 213.131 202.378 212.389 202.999 210.853L209.726 194.204C211.873 194.082 213.738 194.886 215.254 195.984L208.707 212.187C208.087 213.724 208.829 215.472 210.365 216.093C211.901 216.713 213.65 215.971 214.27 214.435L219.677 201.053Z" fill="white"/>
</svg>
